<svg width="32" height="32" viewBox="0 0 32 32" fill="none" xmlns="http://www.w3.org/2000/svg">
<path d="M16 0C10.2908 0 5.64703 4.64376 5.64703 10.3529V21.6471C5.64703 27.3562 10.2908 32 16 32C21.7092 32 26.3529 27.3562 26.3529 21.6471V10.3529C26.3529 4.64376 21.7092 0 16 0ZM24.4706 21.6471C24.4706 26.3172 20.6701 30.1176 16 30.1176C11.3299 30.1176 7.52939 26.3172 7.52939 21.6471V10.3529C7.52939 5.68282 11.3299 1.88235 16 1.88235C20.6701 1.88235 24.4706 5.68282 24.4706 10.3529V21.6471ZM16 6.58824C14.4433 6.58824 13.1764 7.85506 13.1764 9.41177V13.1765C13.1764 14.7332 14.4433 16 16 16C17.5567 16 18.8235 14.7332 18.8235 13.1765V9.41177C18.8235 7.85506 17.5567 6.58824 16 6.58824ZM16.9412 13.1765C16.9412 13.696 16.5195 14.1176 16 14.1176C15.4804 14.1176 15.0588 13.696 15.0588 13.1765V9.41177C15.0588 8.89224 15.4804 8.47059 16 8.47059C16.5195 8.47059 16.9412 8.89224 16.9412 9.41177V13.1765Z" fill="black"/>
</svg>
