<svg width="32" height="32" viewBox="0 0 32 32" fill="none" xmlns="http://www.w3.org/2000/svg">
<path d="M29.8956 27.1L24.2706 13.475C24.1667 13.2234 23.9905 13.0083 23.7643 12.8569C23.538 12.7055 23.2719 12.6247 22.9997 12.6247C22.7275 12.6247 22.4614 12.7055 22.2351 12.8569C22.0089 13.0083 21.8326 13.2234 21.7288 13.475L16.1038 27.1C16.0338 27.2671 15.9976 27.4464 15.9971 27.6275C15.9967 27.8086 16.032 27.9881 16.1011 28.1555C16.1702 28.3229 16.2717 28.4751 16.3998 28.6032C16.5279 28.7313 16.68 28.8328 16.8474 28.9019C17.0148 28.971 17.1943 29.0064 17.3754 29.0059C17.5566 29.0055 17.7358 28.9693 17.9029 28.8994C18.07 28.8294 18.2216 28.7272 18.3491 28.5985C18.4766 28.4698 18.5773 28.3171 18.6456 28.1494L19.7913 25.375H26.2081L27.3538 28.1494C27.4576 28.4011 27.6339 28.6163 27.8602 28.7678C28.0865 28.9192 28.3527 29 28.625 29C28.8509 28.9999 29.0734 28.9441 29.2726 28.8375C29.4718 28.7309 29.6418 28.5769 29.7673 28.3891C29.8929 28.2013 29.9702 27.9854 29.9925 27.7605C30.0147 27.5357 29.9813 27.3088 29.895 27.1H29.8956ZM20.9269 22.625L23 17.6031L25.0731 22.625H20.9269ZM16.74 21.4325C16.9536 21.1374 17.0414 20.7696 16.9841 20.4099C16.9268 20.0502 16.7291 19.7279 16.4344 19.5138C16.4219 19.5044 15.4969 18.8181 14.1538 17.3431C16.6319 13.9881 18.0356 10.1712 18.6081 8.375H20.625C20.9897 8.375 21.3394 8.23013 21.5973 7.97227C21.8551 7.71441 22 7.36467 22 7C22 6.63533 21.8551 6.28559 21.5973 6.02773C21.3394 5.76987 20.9897 5.625 20.625 5.625H13.375V4.375C13.375 4.01033 13.2301 3.66059 12.9723 3.40273C12.7144 3.14487 12.3647 3 12 3C11.6353 3 11.2856 3.14487 11.0277 3.40273C10.7699 3.66059 10.625 4.01033 10.625 4.375V5.625H3.375C3.01033 5.625 2.66059 5.76987 2.40273 6.02773C2.14487 6.28559 2 6.63533 2 7C2 7.36467 2.14487 7.71441 2.40273 7.97227C2.66059 8.23013 3.01033 8.375 3.375 8.375H15.7031C15.1081 10.0594 14.0125 12.7188 12.3413 15.1475C10.3781 12.5425 9.64875 10.8569 9.64312 10.8431C9.49941 10.511 9.23055 10.2489 8.89485 10.1137C8.55916 9.97853 8.1837 9.98113 7.84991 10.121C7.51613 10.2608 7.25092 10.5266 7.11182 10.8607C6.97273 11.1948 6.97095 11.5702 7.10687 11.9056C7.14313 11.9919 8.01625 14.045 10.4106 17.1513C10.4681 17.2256 10.525 17.2981 10.5819 17.3706C8.12937 20.1425 5.72312 21.8619 4.71625 22.4169C4.39608 22.5915 4.1584 22.8862 4.05549 23.236C3.95258 23.5859 3.99287 23.9623 4.1675 24.2825C4.34213 24.6027 4.63679 24.8403 4.98666 24.9433C5.33654 25.0462 5.71296 25.0059 6.03312 24.8312C6.16813 24.7575 9.07063 23.1506 12.385 19.4819C13.7925 20.9869 14.76 21.6969 14.8181 21.7381C14.9644 21.8444 15.1301 21.9207 15.3059 21.9628C15.4817 22.0049 15.6641 22.0119 15.8426 21.9835C16.0211 21.955 16.1922 21.8917 16.3462 21.797C16.5002 21.7024 16.634 21.5783 16.74 21.4319V21.4325Z" fill="black"/>
</svg>
