<svg width="24" height="24" viewBox="0 0 24 24" fill="none" xmlns="http://www.w3.org/2000/svg">
<path id="Vector" d="M11.6571 8.29714C12.9147 7.01212 14.5522 6.17143 16.4571 6.17143C18.4576 6.17143 20.3762 6.96612 21.7907 8.38068C23.2053 9.79524 24 11.7138 24 13.7143V24H21.2571V13.7143C21.2571 12.4412 20.7514 11.2203 19.8513 10.3202C18.9511 9.42 17.7302 8.91429 16.4571 8.91429C15.1841 8.91429 13.9632 9.42 13.063 10.3202C12.1629 11.2203 11.6571 12.4412 11.6571 13.7143V24H8.91429V6.85714H11.6571V8.29714ZM2.05714 4.11429C1.51155 4.11429 0.988312 3.89755 0.602523 3.51176C0.216734 3.12597 0 2.60273 0 2.05714C0 1.51155 0.216734 0.988312 0.602523 0.602523C0.988312 0.216734 1.51155 0 2.05714 0C2.60273 0 3.12597 0.216734 3.51176 0.602523C3.89755 0.988312 4.11429 1.51155 4.11429 2.05714C4.11429 2.60273 3.89755 3.12597 3.51176 3.51176C3.12597 3.89755 2.60273 4.11429 2.05714 4.11429ZM0.685714 6.85714H3.42857V24H0.685714V6.85714Z" fill="white"/>
</svg>
