<svg width="32" height="32" viewBox="0 0 32 32" fill="none" xmlns="http://www.w3.org/2000/svg">
<g clip-path="url(#clip0_126_1008)">
<path d="M32 3.76465H0V11.2941H1.88235V31.9999H30.1176V11.2941H32V3.76465ZM28.2353 30.1176H3.76471V11.2941H28.2353V30.1176ZM30.1176 9.41171H1.88235V5.647H30.1176V9.41171ZM11.2941 20.7058H20.736C22.8122 20.7058 24.5007 19.0174 24.5007 16.9411C24.5007 14.8649 22.8122 13.1764 20.736 13.1764H11.2941C9.21788 13.1764 7.52941 14.8649 7.52941 16.9411C7.52941 19.0174 9.21788 20.7058 11.2941 20.7058ZM11.2941 15.0588H20.736C21.7751 15.0588 22.6184 15.9021 22.6184 16.9411C22.6184 17.9802 21.7751 18.8235 20.736 18.8235H11.2941C10.2551 18.8235 9.41177 17.9802 9.41177 16.9411C9.41177 15.9021 10.2551 15.0588 11.2941 15.0588Z" fill="black"/>
</g>
<defs>
<clipPath id="clip0_126_1008">
<rect width="32" height="32" fill="white"/>
</clipPath>
</defs>
</svg>
