<svg width="32" height="32" viewBox="0 0 32 32" fill="none" xmlns="http://www.w3.org/2000/svg">
<path d="M16 29.3333C14.1556 29.3333 12.4222 28.9831 10.8 28.2827C9.17778 27.5822 7.76667 26.6324 6.56667 25.4333C5.36667 24.2333 4.41689 22.8222 3.71733 21.2C3.01778 19.5778 2.66756 17.8444 2.66667 16C2.66667 14.1556 3.01689 12.4222 3.71733 10.8C4.41778 9.17778 5.36756 7.76667 6.56667 6.56667C7.76667 5.36667 9.17778 4.41689 10.8 3.71733C12.4222 3.01778 14.1556 2.66756 16 2.66667C17.8444 2.66667 19.5778 3.01689 21.2 3.71733C22.8222 4.41778 24.2333 5.36756 25.4333 6.56667C26.6333 7.76667 27.5836 9.17778 28.284 10.8C28.9844 12.4222 29.3342 14.1556 29.3333 16V17.9333C29.3333 19.2444 28.8836 20.3613 27.984 21.284C27.0844 22.2067 25.9787 22.6676 24.6667 22.6667C23.8889 22.6667 23.1556 22.5 22.4667 22.1667C21.7778 21.8333 21.2 21.3556 20.7333 20.7333C20.0889 21.3778 19.3609 21.8613 18.5493 22.184C17.7378 22.5067 16.888 22.6676 16 22.6667C14.1556 22.6667 12.5836 22.0164 11.284 20.716C9.98445 19.4156 9.33422 17.8436 9.33333 16C9.33333 14.1556 9.98356 12.5836 11.284 11.284C12.5844 9.98445 14.1564 9.33422 16 9.33333C17.8444 9.33333 19.4169 9.98356 20.7173 11.284C22.0178 12.5844 22.6676 14.1564 22.6667 16V17.9333C22.6667 18.5111 22.8556 19 23.2333 19.4C23.6111 19.8 24.0889 20 24.6667 20C25.2444 20 25.7222 19.8 26.1 19.4C26.4778 19 26.6667 18.5111 26.6667 17.9333V16C26.6667 13.0222 25.6333 10.5 23.5667 8.43333C21.5 6.36667 18.9778 5.33333 16 5.33333C13.0222 5.33333 10.5 6.36667 8.43333 8.43333C6.36667 10.5 5.33333 13.0222 5.33333 16C5.33333 18.9778 6.36667 21.5 8.43333 23.5667C10.5 25.6333 13.0222 26.6667 16 26.6667H22.6667V29.3333H16ZM16 20C17.1111 20 18.0556 19.6111 18.8333 18.8333C19.6111 18.0556 20 17.1111 20 16C20 14.8889 19.6111 13.9444 18.8333 13.1667C18.0556 12.3889 17.1111 12 16 12C14.8889 12 13.9444 12.3889 13.1667 13.1667C12.3889 13.9444 12 14.8889 12 16C12 17.1111 12.3889 18.0556 13.1667 18.8333C13.9444 19.6111 14.8889 20 16 20Z" fill="black"/>
</svg>
