<svg width="32" height="32" viewBox="0 0 32 32" fill="none" xmlns="http://www.w3.org/2000/svg">
<path d="M22.5882 20.7059C22.5882 18.8235 22.5882 11.2941 22.5882 9.41177C22.5882 0 16.9412 0 16.9412 0C16.9412 0 11.2941 0 11.2941 9.41177C11.2941 18.8235 11.2941 13.1765 11.2941 20.7059C11.2941 20.7059 7.52942 20.7059 7.52942 32C7.52942 32 12.0075 27.5294 15.6461 26.5506C15.6537 27.6461 16.2297 28.5289 16.9412 28.5289C17.6527 28.5289 18.2287 27.6442 18.2362 26.5506C21.8748 27.5294 26.3529 32 26.3529 32C26.3529 20.7059 22.5882 20.7059 22.5882 20.7059ZM16.9412 1.88424C17.4306 1.92376 20.0791 2.39247 20.6061 7.52941H13.2762C13.8033 2.39247 16.4518 1.92376 16.9412 1.88424ZM16.9412 24.4706C14.5487 24.4706 11.7798 26.1045 9.6433 27.7026C10.1384 23.7101 11.2602 22.7539 11.5125 22.5882H13.1765V9.41177H20.7059V22.5882H22.3699C22.6221 22.7539 23.744 23.7101 24.2391 27.7026C22.1026 26.1045 19.3337 24.4706 16.9412 24.4706Z" fill="black"/>
</svg>
