<svg viewBox="0 0 892 600" xmlns="http://www.w3.org/2000/svg">
<path d="M0 0L100 0L100 550C100 577.614 77.6142 600 50 600V600C22.3858 600 0 577.614 0 550L0 0Z" />
<path d="M297 0L397 0V550C397 577.614 374.614 600 347 600V600C319.386 600 297 577.614 297 550L297 0Z" />
<path d="M594 0L694 0V550C694 577.614 671.614 600 644 600V600C616.386 600 594 577.614 594 550V0Z" />
<path d="M99 0L199 0L199 550C199 577.614 176.614 600 149 600V600C121.386 600 99 577.614 99 550L99 0Z" />
<path d="M396 0L496 0V550C496 577.614 473.614 600 446 600V600C418.386 600 396 577.614 396 550L396 0Z" />
<path d="M693 0L793 0V550C793 577.614 770.614 600 743 600V600C715.386 600 693 577.614 693 550V0Z" />
<path d="M198 0L298 0V550C298 577.614 275.614 600 248 600V600C220.386 600 198 577.614 198 550L198 0Z" />
<path d="M495 0L595 0V550C595 577.614 572.614 600 545 600V600C517.386 600 495 577.614 495 550L495 0Z" />
<path d="M792 0L892 0V550C892 577.614 869.614 600 842 600V600C814.386 600 792 577.614 792 550V0Z" />
</svg>
