<svg width="32" height="32" viewBox="0 0 32 32" fill="none" xmlns="http://www.w3.org/2000/svg">
<g clip-path="url(#clip0_126_993)">
<path d="M0 0V32H32V0H0ZM30.1176 30.1176H1.88235V1.88235H30.1176V30.1176ZM7.52941 19.2602V24.4706H9.41177V19.2602C10.8009 18.8499 11.8231 17.5774 11.8231 16.0584C11.8231 14.5393 10.8009 13.2668 9.41177 12.8565V7.52941H7.52941V12.8565C6.14024 13.2668 5.11812 14.5393 5.11812 16.0584C5.11812 17.5774 6.14024 18.8518 7.52941 19.2602ZM8.47059 14.5882C9.28188 14.5882 9.94071 15.2489 9.94071 16.0584C9.94071 16.8678 9.28188 17.5285 8.47059 17.5285C7.65929 17.5285 7.00047 16.8696 7.00047 16.0584C7.00047 15.2471 7.65929 14.5882 8.47059 14.5882ZM15.0588 15.2602V24.4706H16.9412V15.2602C18.3304 14.8499 19.3525 13.5774 19.3525 12.0584C19.3525 10.5393 18.3304 9.26682 16.9412 8.85647V7.52941H15.0588V8.85647C13.6696 9.26682 12.6475 10.5393 12.6475 12.0584C12.6475 13.5774 13.6696 14.8518 15.0588 15.2602ZM16 10.5882C16.8113 10.5882 17.4701 11.2489 17.4701 12.0584C17.4701 12.8678 16.8113 13.5304 16 13.5304C15.1887 13.5304 14.5299 12.8696 14.5299 12.0584C14.5299 11.2471 15.1887 10.5882 16 10.5882ZM23.5294 25.2555C25.3779 25.2555 26.8819 23.7515 26.8819 21.9031C26.8819 20.3821 25.8598 19.1115 24.4706 18.7012V7.52941H22.5882V18.7012C21.1991 19.1115 20.1769 20.384 20.1769 21.9031C20.1769 23.7515 21.6809 25.2555 23.5294 25.2555ZM23.5294 20.4311C24.3407 20.4311 24.9995 21.0918 24.9995 21.9012C24.9995 22.7106 24.3388 23.3713 23.5294 23.3713C22.72 23.3713 22.0593 22.7106 22.0593 21.9012C22.0593 21.0918 22.7181 20.4311 23.5294 20.4311Z" fill="black"/>
</g>
<defs>
<clipPath id="clip0_126_993">
<rect width="32" height="32" fill="white"/>
</clipPath>
</defs>
</svg>
